<?xml version="1.0" encoding="utf-8"?>
<!-- Generator: Adobe Illustrator 16.0.0, SVG Export Plug-In . SVG Version: 6.00 Build 0)  -->
<!DOCTYPE svg PUBLIC "-//W3C//DTD SVG 1.1//EN" "http://www.w3.org/Graphics/SVG/1.1/DTD/svg11.dtd">
<svg version="1.1" id="Laag_1" xmlns="http://www.w3.org/2000/svg" xmlns:xlink="http://www.w3.org/1999/xlink" x="0px" y="0px"
	 width="64px" height="64px" viewBox="0 0 64 64" enable-background="new 0 0 64 64" xml:space="preserve">
<path fill="none" stroke="#FFFFFF" stroke-width="1.3" stroke-linejoin="round" stroke-miterlimit="10" d="M53.144,37.639"/>
<g>
	<g>
		
			<circle fill="none" stroke="#FFFFFF" stroke-width="2.6" stroke-linejoin="round" stroke-miterlimit="10" cx="49.166" cy="40.99" r="13.532"/>
	</g>
	<g>
		<path fill="none" stroke="#FFFFFF" stroke-width="2.6" stroke-linejoin="round" stroke-miterlimit="10" d="M52.888,47.736
			c-0.782,0.291-1.628,0.449-2.511,0.449c-3.975,0-7.197-3.223-7.197-7.196c0-3.975,3.223-7.196,7.197-7.196
			c0.757,0,1.486,0.117,2.171,0.333"/>
		<g>
			
				<line fill="none" stroke="#FFFFFF" stroke-width="2.6" stroke-linejoin="round" stroke-miterlimit="10" x1="40.307" y1="38.582" x2="49.449" y2="38.582"/>
			
				<line fill="none" stroke="#FFFFFF" stroke-width="2.6" stroke-linejoin="round" stroke-miterlimit="10" x1="40.307" y1="43.125" x2="49.449" y2="43.125"/>
		</g>
	</g>
</g>
<path fill="none" stroke="#FFFFFF" stroke-width="2.6" stroke-linejoin="round" stroke-miterlimit="10" d="M49.427,20.899V13.61
	c0-2.281-1.852-4.133-4.134-4.133H5.433c-2.283,0-4.133,1.852-4.133,4.133v23.247c0,2.281,1.85,4.133,4.133,4.133h23.616"/>
<polygon fill="none" stroke="#FFFFFF" stroke-width="2.6" stroke-linejoin="round" stroke-miterlimit="10" points="7.788,25.579 
	7.788,32.497 17.978,32.497 17.978,29.038 17.978,25.579 "/>
<line fill="none" stroke="#FFFFFF" stroke-width="2.6" stroke-linejoin="round" stroke-miterlimit="10" x1="49.427" y1="17.097" x2="1.3" y2="17.097"/>
</svg>
