<?xml version="1.0" encoding="utf-8"?>
<!-- Generator: Adobe Illustrator 16.0.0, SVG Export Plug-In . SVG Version: 6.00 Build 0)  -->
<!DOCTYPE svg PUBLIC "-//W3C//DTD SVG 1.1//EN" "http://www.w3.org/Graphics/SVG/1.1/DTD/svg11.dtd">
<svg version="1.1" id="Laag_1" xmlns="http://www.w3.org/2000/svg" xmlns:xlink="http://www.w3.org/1999/xlink" x="0px" y="0px"
	 width="64px" height="64.01px" viewBox="0 0 64 64.01" enable-background="new 0 0 64 64.01" xml:space="preserve">
<g>
	<path fill="none" stroke="#FFFFFF" stroke-width="2.6" stroke-linejoin="round" stroke-miterlimit="10" d="M37.837,15.379
		l-1.661-0.073c-3.038-0.032-5.755,0.363-8.183,1.05"/>
	<path fill="none" stroke="#FFFFFF" stroke-width="2.6" stroke-linejoin="round" stroke-miterlimit="10" d="M17.128,22.534
		c-4.57,4.273-6.449,8.853-6.449,8.853l-1.871,1.311c0,0,0,0-1.701,0.675c-1.699,0.674-1.557,3.021-1.557,3.021
		s-0.082,0.541-0.283,3.393c-0.205,2.849,1.172,3.646,1.172,3.646s2.291,1.297,3.285,1.366c0.996,0.069,2.678,2.109,2.678,2.109
		l7.439,8.78c0,0-0.666,2.459-0.725,4.543c-0.057,2.078,1.422,2.045,1.422,2.045s4.521-0.017,6.605,0.117
		c2.082,0.133,2.494-1.509,2.494-1.509l0.561-2.356l9.029,0.104c-0.073,3.886,2.938,3.865,2.938,3.865s3.26,0.373,5.51-0.134
		c2.249-0.508,1.365-3.559,1.365-3.559l-0.168-3.344c3.283-1.529,6.165-5.931,6.165-5.931c3.063-5.188,3.638-11.671,3.638-11.671
		c0.646-7.392-2.877-12.165-2.877-12.165"/>
	<path fill="none" stroke="#FFFFFF" stroke-width="2.6" stroke-linejoin="round" stroke-miterlimit="10" d="M31.527,22.371
		c0,0-1.981-4.575-3.512-5.93c-5.377-4.758-10.037-2.984-12.137-2.353c-2.092,0.637-1.068,3.438-1.068,3.438l5.477,11.817"/>
	<path fill="none" stroke="#FFFFFF" stroke-width="2.6" stroke-linejoin="round" stroke-miterlimit="10" d="M48.787,30.126
		c-1.281-2.466-6.718-5.933-9.496-5.933"/>
</g>
<circle fill="none" stroke="#FFFFFF" stroke-width="2.6" stroke-linejoin="round" stroke-miterlimit="10" cx="51.058" cy="11.821" r="6.648"/>
</svg>
