<?xml version="1.0" encoding="utf-8"?>
<!-- Generator: Adobe Illustrator 15.1.0, SVG Export Plug-In . SVG Version: 6.00 Build 0)  -->
<!DOCTYPE svg PUBLIC "-//W3C//DTD SVG 1.1//EN" "http://www.w3.org/Graphics/SVG/1.1/DTD/svg11.dtd">
<svg version="1.1" id="Laag_1" xmlns="http://www.w3.org/2000/svg" xmlns:xlink="http://www.w3.org/1999/xlink" x="0px" y="0px"
	 width="64px" height="64.01px" viewBox="0 0 64 64.01" enable-background="new 0 0 64 64.01" xml:space="preserve">
<circle fill="none" stroke="#000099" stroke-width="2.6" stroke-linejoin="round" stroke-miterlimit="10" cx="20.908" cy="4.412" r="3.111"/>
<circle fill="none" stroke="#000099" stroke-width="2.6" stroke-linejoin="round" stroke-miterlimit="10" cx="28.828" cy="4.41" r="3.111"/>
<line fill="none" stroke="#000099" stroke-width="2.6" stroke-linejoin="round" stroke-miterlimit="10" x1="29.818" y1="7.36" x2="31.751" y2="13.354"/>
<line fill="none" stroke="#000099" stroke-width="2.6" stroke-linejoin="round" stroke-miterlimit="10" x1="19.909" y1="7.36" x2="17.88" y2="13.354"/>
<line fill="none" stroke="#000099" stroke-width="2.6" stroke-linejoin="round" stroke-miterlimit="10" x1="19.261" y1="22.25" x2="14.948" y2="30.778"/>
<line fill="none" stroke="#000099" stroke-width="2.6" stroke-linejoin="round" stroke-miterlimit="10" x1="33.554" y1="30.778" x2="29.243" y2="22.25"/>
<line fill="none" stroke="#000099" stroke-width="2.6" stroke-linejoin="round" stroke-miterlimit="10" x1="24.16" y1="22.25" x2="24.16" y2="29.759"/>
<path fill="none" stroke="#000099" stroke-width="2.6" stroke-linejoin="round" stroke-miterlimit="10" d="M43.515,29.837
	c-1.283-2.007-1.966-5.222-2.06-5.904c-0.333-2.403,0.038-4.169,0.044-4.187c0.016-0.072,0.021-0.145,0.029-0.217
	c0.192-2.179-0.597-3.543-1.294-4.302c-1.668-1.823-4.219-1.874-4.503-1.874h-2.738H15.711h-2.634c-0.282,0-2.834,0.051-4.502,1.874
	c-0.697,0.759-1.486,2.123-1.297,4.302c0.009,0.072,0.02,0.145,0.031,0.217c0.01,0.027,0.613,2.938-0.43,6.362
	c-0.847,2.775-2.869,5.085-2.874,5.092c-0.186,0.206-4.554,5.106-1.794,11.787c2.193,5.309,9.125,7.646,13.062,8.569
	c0,0,4.277,0.99,8.492,0.99c0.22,0,0.44-0.001,0.614-0.003c0.225,0.001,0.445,0.003,0.66,0.003l0,0c0.396,0,3.043,0.016,3.437,0"/>
<line fill="none" stroke="#000099" stroke-width="2.6" stroke-linejoin="round" stroke-miterlimit="10" x1="7.488" y1="22.25" x2="41.322" y2="22.25"/>
<g>
	
		<circle fill="none" stroke="#000099" stroke-width="2.6" stroke-linejoin="round" stroke-miterlimit="10" cx="49.167" cy="49.166" r="13.532"/>
</g>
<g>
	<path fill="none" stroke="#000099" stroke-width="2.6" stroke-linejoin="round" stroke-miterlimit="10" d="M52.89,55.912
		c-0.782,0.291-1.628,0.451-2.511,0.451c-3.975,0-7.197-3.223-7.197-7.197s3.223-7.197,7.197-7.197c0.757,0,1.486,0.117,2.171,0.334
		"/>
	<g>
		
			<line fill="none" stroke="#000099" stroke-width="2.6" stroke-linejoin="round" stroke-miterlimit="10" x1="40.309" y1="46.759" x2="49.451" y2="46.759"/>
		
			<line fill="none" stroke="#000099" stroke-width="2.6" stroke-linejoin="round" stroke-miterlimit="10" x1="40.309" y1="51.301" x2="49.451" y2="51.301"/>
	</g>
</g>
</svg>
